<?xml version="1.0" standalone="no"?><!DOCTYPE svg PUBLIC "-//W3C//DTD SVG 1.1//EN" "http://www.w3.org/Graphics/SVG/1.1/DTD/svg11.dtd"><svg t="1715013657955" class="icon" viewBox="0 0 1024 1024" version="1.1" xmlns="http://www.w3.org/2000/svg" p-id="2047" xmlns:xlink="http://www.w3.org/1999/xlink" width="256" height="256"><path d="M700.96213333 906.30826667H324.67626667v12.56106666c0 13.65333333-4.9152 26.2144-14.7456 36.0448-9.8304 9.8304-22.39146667 14.7456-36.0448 14.7456s-26.2144-5.46133333-36.0448-14.7456c-9.8304-8.73813333-14.7456-22.39146667-14.7456-36.0448v-12.56106666H197.97333333c-91.20426667 0-164.93226667-67.72053333-164.93226666-151.27893334V355.80586667c0-83.5584 73.728-151.27893333 164.93226666-151.27893334h180.77013334l-96.11946667-86.28906666c-17.47626667-15.83786667-18.56853333-32.22186667-3.2768-50.24426667 15.83786667-17.47626667 32.22186667-18.56853333 50.24426667-3.2768l156.19413333 139.264h52.4288l156.19413333-139.264c17.47626667-15.83786667 34.4064-14.7456 50.24426667 3.2768 15.83786667 17.47626667 14.7456 34.4064-3.2768 50.24426667l-97.21173333 86.8352H826.02666667c46.42133333 0 91.20426667 18.0224 121.78773333 49.69813333 27.30666667 26.76053333 42.5984 63.35146667 42.05226667 102.12693333v399.22346667c0 83.5584-73.728 151.27893333-164.93226667 151.27893333h-24.576v12.56106667c0 13.65333333-4.9152 26.2144-14.7456 36.0448-9.8304 9.8304-22.39146667 14.7456-36.0448 14.7456s-26.2144-4.9152-36.0448-14.7456c-9.8304-9.8304-14.7456-22.39146667-14.7456-36.0448v-13.1072l2.18453333-0.54613333z m-134.89493333-174.76266667c7.64586667 0 15.29173333-2.18453333 21.2992-7.09973333l45.32906667-33.86026667c7.09973333-3.82293333 10.37653333-11.4688 10.37653333-19.6608-0.54613333-8.192-5.46133333-14.7456-13.1072-17.47626667-7.64586667-3.2768-15.83786667-1.6384-21.84533333 3.82293334l-40.41386667 30.03733333-29.4912-36.0448c-6.5536-8.192-16.384-13.1072-27.30666667-13.1072s-20.75306667 4.36906667-27.30666666 12.56106667l-30.03733334 35.49866666-34.95253333-28.94506666c-5.46133333-4.9152-13.65333333-6.5536-20.75306667-3.82293334-7.09973333 2.18453333-12.01493333 8.73813333-13.1072 15.83786667-1.09226667 7.64586667 2.18453333 15.29173333 7.64586667 19.6608l39.3216 32.768c15.29173333 12.01493333 37.13706667 10.37653333 49.69813333-4.36906667l28.94506667-34.4064 28.39893333 34.95253334c6.00746667 8.192 16.384 13.65333333 27.30666667 13.65333333zM389.66613333 498.34666667c17.47626667-3.82293333 28.94506667-21.2992 24.576-38.22933334-1.6384-8.73813333-6.5536-15.83786667-14.19946666-20.75306666-7.09973333-4.36906667-15.83786667-6.00746667-24.576-4.36906667l-158.9248 36.59093333c-17.47626667 3.2768-28.94506667 21.2992-24.576 38.22933334 3.2768 17.47626667 21.2992 28.94506667 38.22933333 24.576-0.54613333 0 159.47093333-36.0448 159.47093333-36.0448z m246.30613334 0l158.9248 36.59093333c10.92266667 2.18453333 22.9376-1.6384 30.58346666-10.37653333 7.64586667-8.73813333 10.37653333-20.75306667 6.5536-31.67573334-3.2768-10.92266667-12.56106667-19.11466667-24.576-21.84533333L648.53333333 434.44906667c-8.73813333-2.18453333-17.47626667-0.54613333-24.576 4.36906666-7.09973333 4.36906667-12.01493333 12.01493333-14.19946666 20.75306667-2.73066667 16.93013333 9.28426667 34.4064 26.2144 38.77546667z" fill="#707070" p-id="2048"></path></svg>