<?xml version="1.0" standalone="no"?><!DOCTYPE svg PUBLIC "-//W3C//DTD SVG 1.1//EN" "http://www.w3.org/Graphics/SVG/1.1/DTD/svg11.dtd"><svg t="1715013638894" class="icon" viewBox="0 0 1024 1024" version="1.1" xmlns="http://www.w3.org/2000/svg" p-id="1364" xmlns:xlink="http://www.w3.org/1999/xlink" width="256" height="256"><path d="M878.45546667 197.18826667c37.9904-70.5536-5.4272-162.85013333-5.4272-162.85013334-97.6896 0-168.27733333 65.1264-168.27733334 65.1264-37.9904-21.7088-162.85013333-21.7088-162.85013333-21.7088s-124.85973333 0-162.85013333 21.7088c0 0-70.5536-65.1264-168.27733334-65.1264 0 0-43.4176 92.2624-5.4272 162.85013334 0 0-86.8352 81.408-54.272 255.11253333 30.6176 163.2256 173.70453333 206.26773333 265.96693334 206.26773333 0 0-37.9904 32.5632-32.5632 86.8352 0 0-54.272 32.5632-108.544 10.8544s-81.408-75.9808-81.408-75.9808-54.272-70.5536-108.544-43.4176c0 0-16.2816 16.2816 43.4176 43.4176 0 0 43.4176 65.1264 59.6992 103.1168s103.1168 70.5536 189.98613333 48.8448v124.8256s0 10.8544-21.7088 16.2816-21.7088 16.2816-10.8544 16.2816h390.82666667c10.8544 0 10.8544-10.8544-10.8544-16.2816s-21.7088-16.2816-21.7088-16.2816V832.23893333s0.47786667-65.09226667 0-86.8352c-1.19466667-54.54506667-37.9904-86.8352-37.9904-86.8352 92.2624 0 235.34933333-43.04213333 265.96693333-206.26773333 32.5632-173.70453333-54.272-255.11253333-54.272-255.11253333z" fill="#707070" p-id="1365"></path></svg>